<?xml version="1.0" encoding="UTF-8"?><svg id="Layer_1" xmlns="http://www.w3.org/2000/svg" viewBox="0 0 202.06 233.09"><defs><style>.cls-1{fill:#363795;}</style></defs><path id="Path_30" class="cls-1" d="M45.87,66.4c-1.96,1.97-3.34,4.43-4.7,6.85-.32-.95-.52-1.94-.59-2.95-.38-2.92-1.25-5.76-2.58-8.39-1.37-2.71-3.44-5.33-6.37-6.11-1.26-.27-2.55-.36-3.83-.26l7.43-3.76c.55-.22,1.03-.58,1.39-1.04,2.42-3.7,3.63-8.05,3.47-12.47l7.67,7.38c.52.5,1.37,1.01,1.88.5.92,1.19,2.75.83,4.24.58,1.65-.23,3.32-.32,4.99-.26.88,0,1.96.14,2.29.95-2.33,3.21-4.13,6.76-5.34,10.53l-.58-.63c-.43.57-.47,1.34-.11,1.96.36.6.8,1.15,1.29,1.63,1.18,1.35,1.96,3.01,2.26,4.78-2.28-1.02-4.75-1.56-7.26-1.57-1.03-.04-2.06.12-3.03.46-.96.42-1.82,1.03-2.54,1.8M38.86,57.21c.51.15,1.01.36,1.47.63,1.46.98,1.6,3.06,1.43,4.81-.08.81-.17,1.71.3,2.38s1.74.74,1.96-.04c.4-1.11,1.27-2,2.37-2.44,1.88-.86,4.02-.93,5.95-.19.75.29,1.52.72,2.31.59s1.43-1.21.84-1.75c-1.51-1.4-2.36-3.38-2.32-5.44.4.18.8-.22,1.05-.58l3.77-5.36c.28-.31.44-.71.45-1.13-.08-.95-1.39-1.11-2.33-1l-4.58.53c-1.42.16-3.05.26-4.06-.74-.29-.32-.54-.67-.75-1.05-.96-1.57-2.1-3.03-3.41-4.33-.58-.57-1.55-1.12-2.11-.54-.15.18-.26.4-.32.63-.47,1.45-.93,3.09-.21,4.43,1.09,2.01.35,4.53-1.67,5.62-.53.29-1.12.46-1.72.49-1.12.07-1.64,1.61-1.13,2.61.52,1,1.64,1.52,2.7,1.88M40.19,46.01l-.19-.51c-.13.15-.11.38.04.51.02.02.05.04.08.05l.08-.05Z"/><path id="Path_31" class="cls-1" d="M89.7,48.58c3.51-5.81,1.64-13.36-4.17-16.86-.03-.02-.07-.04-.1-.06,3-.24,6.24-.58,8.45-2.63.91-.91,1.66-1.97,2.23-3.12.97-1.77,1.84-3.6,2.61-5.47,1.73,1.62,3.08,3.61,3.93,5.83.4,1.04,1.51,1.61,2.53,2.07l11.21,5.13-2.61,1.3c-2.35,1.17-4.96,2.68-5.47,5.25-.57,2.92,1.89,5.56,2.25,8.51-2.82-1.7-5.76-3.18-8.79-4.45-.49-.23-1.01-.39-1.54-.46-1.02-.09-2,.41-2.9.89l-7.64,4.07M93.96,44.52c1.14-1.18,2.32-2.38,3.81-3.06s3.4-.7,4.64.37c.76.65,1.32,1.7,2.31,1.79.32-.23.55-.57.65-.96l.42.56c.52-.32.14-1.1-.18-1.61-.54-.85-.84-1.84-.84-2.86,0-1.14.73-2.53,1.85-2.37,1.36.2,2.74-.1,3.89-.85.26-.15.49-.36.65-.62.38-.68-.04-1.55-.61-2.07s-1.31-.87-1.82-1.45c-.07.45-.76.25-1.13-.03-1.2-.93-2.65-1.48-4.16-1.6-.34,0-.69-.06-1.01-.18-.31-.18-.57-.43-.77-.72l-2.57-3.3c-.34-.32-.87-.31-1.19.03,0,0,0,0-.01.01-.29.35-.48.77-.54,1.23l-1.04,4.49c-.22-.24-.33-.56-.32-.88-.43.59-.7,1.27-.79,1.98l-4.8.3c-.62.04-1.38.19-1.54.79-.17.63.5,1.15,1.07,1.46l3.26,1.8c.98.54,2.11,1.38,1.91,2.48-1.26,1.44-1.69,3.43-1.15,5.26M93.81,32.23c-.02-.17-.18-.3-.36-.27-.07,0-.14.04-.19.1.07.16.26.23.43.16.01,0,.02-.01.04-.02l.09.03Z"/><path id="Path_32" class="cls-1" d="M143.47,50.2c.93,1.76,2.16,3.34,3.64,4.67,1.51,1.33,3.48,2,5.48,1.87.95-.14,1.89-.4,2.77-.78l7.61-2.83c-2.76,5.34-3.93,11.35-3.38,17.34.14,1.55.43,3.14,1.33,4.41.39.55.9,1.3.46,1.82-2.39-1.67-5.11-2.78-7.98-3.28-1.48-.25-3.26-.22-4.15.99l-4.77,6.49c-.2.35-.51.62-.89.76-.39.1-.88-.21-.8-.6.69-3.12-.8-6.41-3.05-8.68s-5.17-3.73-8.04-5.15l-.45-1.15c3.2-1.47,6.03-3.63,8.3-6.31,2.27-2.7,3.63-6.06,3.89-9.58M157.83,71.79c.33-.75-.29-1.55-.5-2.35-.35-1.35.49-2.82.02-4.13-.22-.42-.4-.87-.54-1.32-.07-.47.3-1.06.76-.95.14-1.98.61-3.92,1.4-5.75-.49-.6-1.44-.28-2.12.08l-1.47.77c-.21.11-.47.3-.41.54s.53-.02.31-.12l-2.82.84c-.02.58-.9.48-1.46.32-.82-.23-1.7-.13-2.45.27l-.54-1.05c-1.18,0-2.14-.96-2.14-2.14,0-.12,0-.24.03-.36l-1.52-.93c-.14-.11-.32-.17-.5-.17-.32.03-.48.39-.56.7-.29,1.07-.4,2.19-.31,3.3.11,1.28.27,2.94-.9,3.46-1.28.56-2.72.81-3.86,1.62s-1.86,2.51-1,3.61c.7.89,2.01.93,3.14.88l.45.62c.52-.38,1.23-.33,1.69.12,1.09.91,1.07,2.56,1,3.98s.08,3.11,1.31,3.83c1.02-.76,1.42-2.08,1.68-3.32s.46-2.56,1.23-3.57,2.35-1.54,3.33-.73c1.91,1.58,4.17,2.67,6.6,3.17-.43-.18-.03-.78.15-1.21M146.82,58.22c.03.1.14.15.23.12.03,0,.06-.03.08-.05.07-.38-.06-.77-.36-1.02-.11.31-.09.65.04.95M158.39,70.36c.05-.15-.04-.37-.19-.33-.07.11-.03.26.08.32.04.02.08.04.13.03l-.02-.03Z"/><path id="Path_33" class="cls-1" d="M52.16,174.1l-1.13-5.66c-.05-.23-.08-.51.1-.66.13-.09.29-.13.44-.11l1.89-.04.46,3.34.74,3.01c.9,3.63,1.81,7.31,3.57,10.61.23.66.93,1.03,1.6.83,3.27-.29,6.45-1.16,9.41-2.58,1.15-.55,2.69-1.13,3.57-.2-1.23,2.81-4.55,4.02-7.58,4.52s-6.29.67-8.77,2.49c-.46-3.44-1.33-6.82-2.59-10.05-.39-1.01-.82-2-1.13-3.04-.24-.8-.41-1.63-.57-2.45Z"/><path id="Path_34" class="cls-1" d="M71,106.09c-.79-1.43-2.41-2.51-4.01-2.23-1.39.25-2.43,1.41-3.11,2.65-.99,1.74-1.32,3.78-.94,5.75.42,1.98,1.79,3.62,3.66,4.38.82.3,1.71.4,2.54.69.86.24,1.54.89,1.83,1.73-1.84-.12-3.67-.42-5.45-.89-1.03-.28-2.16-.7-2.63-1.67-.34-.72-.42-1.78-1.2-1.92-.7-.17-1.24-.71-1.42-1.4-.17-.68-.18-1.4-.04-2.09.52-3.45,2.05-6.67,3.55-9.82.18-.54.55-.99,1.05-1.27.38-.12.78-.14,1.16-.05,2.31.36,4.52,1.24,6.43,2.59.8.57,1.62,1.37,1.56,2.35-.01.2-.05.44.11.57s.4-.23.19-.24c.22.57.2,1.2-.06,1.75l-.38,3.93c-.58.68-1.51.93-2.35.63-.07-.18.33-.18.33.02s-.21.32-.39.4c-.65.35-1.37.55-2.11.58-.76,0-1.43-.51-1.61-1.25-.13-.97.88-1.66,1.33-2.53.4.17.83.28,1.27.31.55-.88.79-1.92.68-2.95Z"/><path id="Path_35" class="cls-1" d="M94.19,115.05c.55-1.08,2.16-.62,3.33-.92.79-.21,1.41-.81,1.65-1.58,1.58-5.19,3.43-10.28,5.54-15.28.35-.14.75.03.89.38,0,0,0,.02.01.03.11.36.11.74,0,1.1-.86,4.66-1.72,9.34-3.2,13.84-.26.94-.68,1.84-1.23,2.65-.57.81-1.47,1.34-2.46,1.43-1.63.06-2.94-1.39-4.55-1.65Z"/><path id="Path_36" class="cls-1" d="M86.64,150.43c-.11.02-.22-.03-.28-.13-.05-.1.03-.24.13-.23.1.02.19.09.25.17.05.09-.03.24-.13.21l.02-.03Z"/><path id="Path_37" class="cls-1" d="M94.78,84.97c-.06-.33-.02-.67.12-.97.57-1.37,1.83-2.33,3.3-2.5-.24-.06-.12-.46.11-.53.24-.02.48-.02.73,0,.57-.08.94-.86,1.51-.77.53.08.64.79.62,1.32,0,.24-.02.49-.03.74,0,.19-.03.38-.1.56-.15.29-.48.42-.74.61s-.45.59-.23.83c-.15.44-.88.27-1.19.61-.09.13-.17.26-.22.41-.36.72-1.34.83-2.14.75-.72-.08-1.56-.35-1.74-1.05Z"/><path id="Path_38" class="cls-1" d="M116.06,75.9c-.28.05-.55-.13-.61-.41-.01-.05-.01-.11,0-.16.16-.2.45-.24.65-.08.2.16.24.45.08.65-.02.02-.03.04-.05.05l-.06-.05Z"/><path id="Path_39" class="cls-1" d="M104.67,59.25c-.19.11-.38-.26-.19-.36l.2.32v.04Z"/><path id="Path_40" class="cls-1" d="M90.91,105.29c-.23-.07-.45-.19-.63-.35-.45-.5-.07-1.28.31-1.83l.99-1.42c.66-.17,1.25-.51,1.73-1,.17-.21.39-.38.63-.5.38-.1.78.03,1.04.33.24.3.42.64.54,1.01l-.88,1.03c-.1.09-.16.21-.17.35,0,.13.17.25.27.16l-1.21,1.22c-.16.17-.37.35-.6.31-.28-.05-.39.35-.56.58-.32.42-.97.28-1.46.1Z"/><path id="Path_41" class="cls-1" d="M58.12,128.04c.09-1.12.76-2.12,1.78-2.61,4.23-1.07,8.62-1.3,12.93-.69,1.24.18,2.5.05,3.69-.36-.2-1.61-1.39-2.92-2.98-3.29l.18-.98,4.19,2.02c0,.32,0,.63.01.95.22-.37.85-.22,1.05.16.15.4.16.85,0,1.26-.26,1.04-.58,2.06-.95,3.07-1.12.73-1.77,1.97-2.38,3.15l-8.02,15.62c-.26.39-.37.85-.3,1.31.15.54-.34,1.03-.76,1.41-3.39,3.06-4.82,7.74-7.77,11.23-.7.75-1.35,1.54-1.95,2.37-.99,1.53-1.52,3.6-3.21,4.3-.22.13-.49.11-.7-.03-.1-.14-.15-.31-.14-.49-.03-1.21-.05-2.48.54-3.53.18-.37.28-.77.32-1.19.56-4.1.82-8.23.78-12.37-.06-5.57.83-11.11,2.62-16.39.38-1.1-.68-2.41-.09-3.41.33-.56,1.11-.87,1.15-1.52M58.36,137.27c-.21.72-.43,1.45-.61,2.18-.88,3.48-1.19,7.08-.94,10.66.1,1.45.29,2.97-.27,4.31.88,1.86-1.59,4.4-.2,5.93,2.82-3.21,3.93-7.61,6.61-10.93,4.04-5,6.89-10.83,9.7-16.61.36-.71.68-1.44.95-2.19.22-.64.37-1.3.44-1.97-.09-.48-.7-.63-1.19-.66l-2.85-.21c-1.75-.17-3.52-.22-5.28-.16-1.2.07-2.5.29-3.32,1.17-.49.61-.83,1.32-1.02,2.07l-.92,2.86c-.38,1.18-.76,2.36-1.12,3.55M56.46,152.69c.2-.17.26-.46.15-.7-.23.15-.29.46-.14.69,0,0,0,.01.01.02M78.51,123.57c-.08-.15-.22-.25-.39-.29-.01.16.11.3.26.31.05,0,.09,0,.13-.02h-.01Z"/><path id="Path_42" class="cls-1" d="M77.63,90.52c.26-.44.68-.78,1.17-.93.33-.13.71-.07.98.15.24.25.15.78-.2.82.25.53.47,1.25.02,1.63l-3.15,2.62c-.23.19-.53.39-.8.27-.8-.37-1.99-.07-2.43-.84-.31-.55.05-1.25.53-1.67.31-.27.67-.49,1.06-.63.44-.16,1-.32,1.1-.78.14-.64,1.37-.07,1.7-.63Z"/><path id="Path_43" class="cls-1" d="M72.06,69.57c-.47,1.03-.77,2.13-.89,3.26-.12,1.14.31,2.27,1.15,3.06.5.31.98.65,1.43,1.02.41.42.57,1.19.11,1.56-.01-.26.34-.4.58-.3.23.13.41.33.53.56,1.84,2.8,5.59,3.58,8.39,1.74,1.61-1.06,2.62-2.82,2.73-4.74.08-1.4,1.56-2.27,2.92-2.61s2.87-.46,3.9-1.41c1.82-1.68,4.65-1.93,6.97-1.08s4.2,2.64,5.68,4.62c2.83,3.77,4.47,8.87,2.71,13.24l-2.33,2.46c.88-.29,1.66-.82,2.25-1.53l-.07,1.09c1.7-.38,3.11,1.22,4.61,2.09,2.16,1.2,4.84.98,6.77-.56.46-.38,1.21.04,1.35.62.07.6-.12,1.19-.53,1.63-1.53,1.89-4.08,2.61-6.37,1.8l-1.02,1.47c1.12.77,2.47,1.16,3.83,1.11.44.05.76.45.71.9,0,.05-.01.09-.03.14-.17.46-.52.82-.98,1-1.82.83-3.97.29-5.18-1.29-.38-.57-.68-1.18-.91-1.83l-1.01-2.54c-1.28-.57-2.15-1.79-2.26-3.19-1.4.11-2.62.95-3.9,1.52-3.99,1.65-8.59.62-11.5-2.57-2.24-2.56-3.16-6.24-5.94-8.21-1.7.1-2.8,2.39-1.81,3.78,1.15,1.63,1.74,3.6,1.67,5.59-.17-.14-.43-.11-.57.06s-.11.43.06.57c.11.09.26.11.4.06.06,1.59-.38,3.16-1.28,4.47.2,1.25-.12,2.54-.89,3.55-.39.22-.76.47-1.12.75-1.29.93-2.68,1.73-4.14,2.38-.3.16-.63.24-.97.24-.64-.12-1.13-.64-1.22-1.28-.16-.91.23-1.83.99-2.35,1.01-.66,2.42-.46,3.42-1.15,1.31-.9,1.27-2.8,1.79-4.3,1.68-4.89-.91-10.21-5.8-11.9-2.19-.75-4.58-.67-6.71.24-.68.5-1.47.84-2.18,1.31-2.23,1.51-3.46,4.1-3.24,6.78-.13-.16-.4.04-.41.25s.12.41.11.62c-.02.53-.86.65-1.23.27-.32-.43-.47-.97-.44-1.5-.17-2.37-.95-4.66-2.27-6.64-2.15-3.23-2.14-7.59-.55-11.13s4.55-6.31,7.87-8.32,7-3.32,10.65-4.62l9.65-3.44c1.99-.8,4.07-1.35,6.2-1.62,1.94-.1,3.88.06,5.77.49,5.04.97,10.28,2.69,13.54,6.66,3.03,3.69,3.84,8.7,4.14,13.46.28,4.42.13,9.18-2.4,12.82-.35.64-.97,1.09-1.68,1.24-1.01.07-1.79-1.04-1.72-2.06s.72-1.88,1.4-2.63c.74-.69,1.36-1.51,1.81-2.42-.04-2.12-.59-4.19-1.61-6.04-.45-.81-1.41-1.67-2.17-1.15-.95.66-2.32.25-3.14-.55s-1.27-1.91-1.81-2.93c-1.57-2.96-4.03-5.36-7.03-6.86-1.46,1.42-3.46,2.12-5.49,1.94-.83.22-1.72.07-2.43-.41-3.24-.1-6.46-.4-9.66-.9.38,2.1,3,2.89,5.14,2.81,1.16-.04,2.74.08,2.93,1.23-.65,1.81-4.03.29-5.12,1.88-3.15-1.59-6.11-3.52-8.82-5.77-.98.62-.74,2.13-.17,3.14,1.25,2.16,3.37,3.68,5.82,4.17.28.96-.28,1.97-1.24,2.24-.18.05-.36.07-.55.07-.77-.08-1.39-.66-1.94-1.2l-3.75-3.71c-.43-.48-.94-.88-1.51-1.2M110.36,66.56c.9,2.28,1.11,5.18,3.24,6.4.72.42.83,1.38,1.08,2.18s1.1,1.63,1.8,1.18c.25-1.76.07-3.55-.53-5.22-.48-1.23-1.07-2.42-1.77-3.55l-3.08-5.36c-.98-1.68-2.65-2.84-4.56-3.19-.57-.1-1.33-.3-1.33-.88l-2.15-.82,1.35,1.31-1.11.46c2.84,2.01,5.78,4.25,7.06,7.48M96.93,90.47c1.87.12,3.74-.07,5.55-.56,2.45-1.85,3.64-4.94,3.05-7.95-.46-2.19-1.83-4.09-2.43-6.25-.47-1.71-2.14-2.88-3.87-3.27s-3.54-.14-5.29.11c-1.1.16-2.45.56-2.63,1.66-.66-.26-1.4-.11-1.91.38-.49.49-.82,1.12-.93,1.81-.22,1.24-.16,2.51.16,3.72.93,3.94,3.3,7.38,6.65,9.65.48.37,1.05.61,1.65.7M97.13,59.29l-4.22-1.04,1.73,1.61c-1.02-.37-2.12-.45-3.19-.25l1.99.57c2.88.82,5.82,1.67,8.27,3.4,2.82,1.98,4.78,4.98,6.35,8.05.38.28.92.2,1.21-.18.04-.05.07-.1.09-.16.19-.49.18-1.04,0-1.53-.31-1.08-.81-2.1-1.48-3.01-.91-1.15-1.95-2.2-3.1-3.11-1.75-1.5-3.54-3.03-5.71-3.81-.63-.22-1.27-.4-1.92-.54M65.53,73.86c-.08.4-.16.88-.52,1.08l.08,1.05-.38.4c.14.11.35.08.46-.06,0,0,0-.01.01-.02.29.41.41.92.35,1.41-.02.65.16,1.3.52,1.84.38.55,1.08.78,1.71.55.57-.26,1.18-.39,1.8-.4.37.06.75-.03,1.05-.25.28-.3.26-.88.65-1.02.18-.09.26-.29.19-.48-.07-.18-.19-.33-.33-.45-.84-.72-1.5-1.61-1.93-2.63-.51-1.44-.13-3.02.24-4.51.04-.27-.14-.53-.4-.6-.26-.06-.53-.05-.78.03-.31.06-.61.16-.88.32-.57.44-.99,1.05-1.18,1.75-.28.64-.5,1.3-.66,1.98M62.84,83.7c.17.05.43.04.45-.14.08-.45.47-.78.93-.77-.23-.17-.38-.42-.43-.7,0-.28.36-.54.56-.35-.15.16-.2.39-.12.59.26-.02.5-.18.62-.42-.14-.22-.21-.47-.19-.73-.11-1.37-1.13-2.46-1.76-3.68-.84-1.65-1-3.56-.42-5.32.08-.24,0-.65-.23-.54-.88.33-.8,1.69-1.52,2.3-1.27,1.08-.67,3.22-1.47,4.69.31.48.36,1.08.14,1.61.36.29.61.67.74,1.11.53,1.13,1.51,1.98,2.7,2.34M90.48,64.11l2.32.16.07-.38c-.48.02-.96-.07-1.41-.25-.45-.18-.97-.14-1.38.13-.31-.08-.28-.57-.04-.77.27-.16.57-.28.88-.34-.06-.46-.75-.6-1.09-.28-.31.36-.35.88-.11,1.29.06.14.17.26.3.35.14.06.29.1.45.1M88.02,59.33l2.24.05c.12.02.25,0,.35-.07.18-.14.14-.41.07-.63l-1.85.21c-.33.04-.72.13-.82.44M91.59,58.09h-.4l-.2.33c.46.13.95.14,1.41.02l-.82-.34M74.81,65.19c-.04.31.14.6.44.68.09-.25.06-.52-.1-.73-.06-.07-.17-.08-.25-.02-.02.02-.04.05-.05.07M91.81,62.71c.09.09.23.09.32,0,.04-.04.06-.09.07-.15l-1.1-.15c.07.23.31.35.54.28.04-.01.07-.03.1-.05M71.09,70.42l.34-.34c-.1-.13-.29-.15-.42-.05-.13.1-.15.29-.05.42.03.04.06.06.1.08M88.16,63.25c0,.11.1.2.21.19,0,0,.02,0,.03,0,0-.17.06-.34.18-.47-.14-.06-.31,0-.37.15-.02.04-.03.09-.02.13M65.47,72.04c-.19.09-.26.32-.17.5,0,0,0,0,0,0,.11-.04.21-.13.28-.23.05-.11,0-.28-.13-.28M84.87,89.46c-.03-.1-.14-.16-.24-.12-.03,0-.05.02-.07.04.11.16.27.28.46.34.12-.08,0-.3-.12-.26M107.87,91.4c.06-.18-.25-.23-.42-.14.02.13.15.22.28.2.05,0,.1-.03.13-.07M85.08,90.33c.04-.21-.37-.36-.37-.14.05.14.21.21.35.15.01,0,.02,0,.03-.02M87.7,62.12c-.11-.03-.23-.01-.33.05.06.09.15.2.26.19s.17-.2.06-.22M83.41,99.37c.1-.1.11-.26.03-.38-.2,0-.23.37-.03.4M64.12,87.84c.12-.02.02-.24-.09-.21s-.17.16-.2.28c.08.06.19.04.25-.03.01-.02.02-.04.03-.06h.02Z"/><path id="Path_44" class="cls-1" d="M105.05,157.49l-12.74-20.64c-.81-1.31-1.64-2.92-.99-4.31,4.12,7.47,8.79,14.62,13.97,21.39,1.08,1.42,2.23,2.85,3.78,3.74s3.6,1.13,5.08.12c-2.25-2.2-4.03-4.83-5.23-7.74-.51-1.24-1.64-2.1-2.59-3.05-2.19-2.19-3.54-5.06-5.01-7.79-2.81-5.23-6.15-10.15-9.98-14.68,3.18-.98,6.03,3.31,9.32,2.76,1.74-.3,2.94-1.87,3.95-3.32,3.42-4.93,6.93-10.5,6.17-16.45,3.57,4.9,10.18,6.16,15.93,8.1,7.36,2.48,14.32,6.82,18.6,13.3,5.11,7.73,5.87,17.45,6.47,26.69l1.33,20.41c.17,1.35.09,2.73-.22,4.06-.39,1.3-1.36,2.52-2.69,2.81-3.23.69-6.59,1.38-9.82.69-.91-.15-1.84-.18-2.76-.08-12.82.7-25.66-.51-38.44-1.72-3.72-.27-7.42-.78-11.07-1.53-3.65-.84-7.23-2.16-10.97-2.37.34-.16.5-.55.38-.9-1.07,1.29-1.74,2.85-1.95,4.51-1.47.07-1.81-2.05-1.56-3.5,3.35-19.64,13.6-37.92,14.55-57.83.1-2.14-1.3-4.12-3.09-5.3s-3.91-1.71-5.98-2.22c-1.4-.34-1.75-2.61-.52-3.36,1.16-.71,2.64.03,3.79.76,3.4,2.16,6.93,4.44,9,7.9-1.14,5.3-1.75,10.7-1.83,16.12-2.08,2.63-2.31,6.27-.57,9.13,3.23,5.09,6.8,9.94,10.7,14.53.82.97,1.78,1.99,3.04,2.12s2.63-1.27,1.96-2.35M128.99,160.73c-11.47-.57-22.96.02-34.31,1.74-2.31.31-4.59.78-6.83,1.41-2.47.74-5.4,1.72-7.39.09-1.68,3.58-2.69,7.44-2.97,11.38.56.11,1.1-.24,1.23-.79,5.25,2.91,11.32,4.03,17.3,4.46s12.01.2,18,.61c11.08.76,22.38,3.69,33.1.79,1.05-.28,2.25-.8,2.45-1.87.66-3.61.38-7.31.1-10.97l-1.21-15.92c-.33-4.32-.66-8.67-1.81-12.85s-3.18-8.22-6.42-11.09c-.95-.84-2.06-1.68-2.33-2.91-3.41-.66-6.87.8-8.79,3.69-2.05,6.19-2.28,12.83-.68,19.15.82,3.56,1.37,7.18,1.66,10.83.1.96-.15,2.31-1.11,2.26M111.05,122.11c.03-.32-.39-.52-.69-.41-.29.14-.51.38-.65.67l-2.29,3.75c-.5.81-1.01,1.72-.84,2.66.09.41.25.79.47,1.15,5.04,9.25,11.14,17.87,18.19,25.7.66.73,1.63,1.52,2.51,1.08l-1.34-8.29c-.22-1.35-.49-2.8-1.48-3.75-1.67-1.58-2.77-3.64-3.88-5.65-2.78-5.06-5.73-10.02-8.84-14.88-.46-.73-1.09-1.53-1.95-1.5-.03-.35.44-.5.79-.52M99,130.65l1.66,3.55,1.14,2.42,1.5,3.2c1.65,2.51,3.3,5.01,5,7.48,1.45,2.11,2.94,4.19,4.46,6.24,2.5,3.05,6.18,4.87,10.11,5.02.53.02,1.27-.44.9-.82-3.4-3.53-5.83-7.86-8.34-12.07-3.03-5.09-6.23-10.06-9.61-14.93-.12-.22-.31-.4-.54-.5-.27-.09-.58.02-.84-.09s-.29-.62-.01-.57c-.86.16-1.67.56-2.31,1.16-.91.78-2.27.74-3.13-.1M84.45,162.41l6.1-1.21c.66-.05,1.28-.34,1.75-.8l.9.24c-2.69-2.93-5.15-6.07-7.34-9.39.49-.3,1.12-.26,1.57.08.44.35.81.78,1.08,1.27l3.64,5.71c.32.58.75,1.1,1.26,1.52,1.38,1.01,3.3.49,4.92-.07l-10.06-15.06c-.25-.38-.59-.8-1.04-.75-.47.05-.72.58-.87,1.03l-2.12,6.23-2.49,7.3c-.44,1.29-.74,3.01.4,3.75.67.43,1.54.29,2.32.14M110.75,119.67c1.73,1.61,3.02,3.63,4.29,5.62l2.15,3.37c.85,1.33,1.7,2.67,2.55,4,1.68,2.62,3.4,5.21,5.14,7.79.94-1.27.56-3.03.33-4.6-.28-1.91-.25-3.85.06-5.76.02-.48-.11-.96-.39-1.36-1.93-3.51-4-6.94-6.21-10.28-1.2-1.81-2.67-3.75-4.82-4.12-.96,1.82-2,3.6-3.11,5.33M124.26,123.58c.26-.09.54-.05.75.12l-.25.92c.57.26.98.79,1.1,1.41.8.37,1.74.02,2.11-.78.13-.28.17-.58.13-.88l.69-.41c.1-.45-.07-.93-.44-1.21-.22-.5-.51-.97-.85-1.39l-1.03-1.38c-.3-.46-.67-.86-1.1-1.2-.57-.32-1.16-.59-1.78-.8-1.38-.62-2.44-1.77-2.95-3.19-.08-.24-.45-.26-.64-.09-.17.19-.26.44-.25.7-.04.87.2,1.74.68,2.47.18-.06.34-.17.48-.3.24.88.63,1.71,1.17,2.44.83,1.14,2.04,2.16,2.19,3.57M131.54,121.69c.54.33,1.25.17,1.59-.38.02-.04.04-.07.06-.11l-2.31-.83c-.08.12-.09.27-.04.41.11.38.36.71.7.91M91.05,146.02l-.35-.09c.09.31.33.54.63.62.05-.22-.08-.44-.29-.5M125.5,139.86c-.21.05-.08.45.12.37.12-.06.2-.17.21-.3l-.34-.04M91.27,117.94c.02-.18-.23-.26-.41-.26,0,.16.12.29.28.29.04,0,.09,0,.13-.03M96.49,154.26c0,.16.12.29.28.3.05,0,.09,0,.13-.03.03-.18-.23-.26-.41-.26M93.26,149.3c.07-.12-.17-.24-.23-.11-.11.15.25.3.28.12h-.05Z"/></svg>