<?xml version="1.0" encoding="UTF-8"?><svg id="Layer_1" xmlns="http://www.w3.org/2000/svg" viewBox="0 0 51.09 54.25"><defs><style>.cls-1{fill:#363795;}</style></defs><g id="noun-email-7558754-2"><path id="Path_17-2" class="cls-1" d="M44.29,12.74H8.25c-2.64.16-4.65,2.42-4.5,5.06v23.93c-.15,2.64,1.86,4.9,4.5,5.06h36.04c2.64-.16,4.65-2.42,4.5-5.06v-23.93c.15-2.64-1.86-4.9-4.5-5.06ZM35.41,29.8l10.88-12.24c.02.07.03.15.03.22v23.93c0,.1-.02.2-.05.29l-10.86-12.2ZM44.29,15.5c.11.01.21.04.31.07l-11.76,13.23s-.02,0-.03.02c-.02.02,0,.02-.02.04l-5.01,5.65c-.67.8-1.86.91-2.66.24-.09-.07-.16-.15-.24-.24L8.01,15.55c.08,0,.16-.06.26-.06h36.03-.02ZM6.26,42.02c0-.09-.05-.18-.05-.29v-23.93c0-.1.02-.2.05-.29l10.91,12.26-10.91,12.26ZM8.26,44.03c-.09,0-.18-.03-.26-.06l10.91-12.26,4.23,4.75c.8.92,1.96,1.46,3.18,1.47,1.23-.02,2.39-.55,3.19-1.47l4.18-4.69,10.86,12.2c-.08,0-.16.06-.26.06H8.26Z"/></g></svg>