<?xml version="1.0" encoding="UTF-8"?><svg id="Layer_1" xmlns="http://www.w3.org/2000/svg" viewBox="0 0 51.09 54.25"><defs><style>.cls-1{fill:#363795;}</style></defs><g id="noun-instagram-7495703"><path id="Path_14" class="cls-1" d="M35.52,13.26h-19.45c-4.03,0-7.3,3.27-7.3,7.3h0v19.45c0,4.03,3.27,7.3,7.3,7.3h19.45c4.03,0,7.3-3.27,7.3-7.3v-19.45c0-4.03-3.27-7.3-7.3-7.3ZM40.38,40.01c0,2.69-2.18,4.86-4.87,4.87h-19.45c-2.69,0-4.86-2.18-4.86-4.87v-19.45c0-2.69,2.18-4.86,4.86-4.86h19.45c2.69,0,4.86,2.18,4.86,4.86v19.45ZM25.79,20.55c-5.37,0-9.73,4.35-9.73,9.73s4.35,9.73,9.73,9.73c5.37,0,9.73-4.35,9.73-9.73h0c0-5.37-4.36-9.72-9.73-9.73ZM25.79,37.58c-4.03,0-7.3-3.27-7.3-7.3,0-4.03,3.27-7.3,7.3-7.3,4.03,0,7.3,3.27,7.3,7.3s-3.27,7.3-7.3,7.3h0ZM36.38,19.69c.47.48.47,1.25,0,1.72-.48.47-1.25.47-1.72,0-.47-.47-.47-1.24,0-1.71.49-.45,1.24-.45,1.73,0Z"/></g><g id="noun-instagram-7495703-2"><path id="Path_14-2" class="cls-1" d="M35.52,13.26h-19.45c-4.03,0-7.3,3.27-7.3,7.3h0v19.45c0,4.03,3.27,7.3,7.3,7.3h19.45c4.03,0,7.3-3.27,7.3-7.3v-19.45c0-4.03-3.27-7.3-7.3-7.3ZM40.38,40.01c0,2.69-2.18,4.86-4.87,4.87h-19.45c-2.69,0-4.86-2.18-4.86-4.87v-19.45c0-2.69,2.18-4.86,4.86-4.86h19.45c2.69,0,4.86,2.18,4.86,4.86v19.45ZM25.79,20.55c-5.37,0-9.73,4.35-9.73,9.73s4.35,9.73,9.73,9.73c5.37,0,9.73-4.35,9.73-9.73h0c0-5.37-4.36-9.72-9.73-9.73ZM25.79,37.58c-4.03,0-7.3-3.27-7.3-7.3,0-4.03,3.27-7.3,7.3-7.3,4.03,0,7.3,3.27,7.3,7.3s-3.27,7.3-7.3,7.3h0ZM36.38,19.69c.47.48.47,1.25,0,1.72-.48.47-1.25.47-1.72,0-.47-.47-.47-1.24,0-1.71.49-.45,1.24-.45,1.73,0Z"/></g></svg>